<svg xmlns="http://www.w3.org/2000/svg" width="400px" height="400px" viewBox="0 0 400 400">
    <path d="M200,7,228.2880966923386,57.78613434153158,273.85790244646233,21.691250225321653,280.55768378784234,79.43690621613094,336.4716087690037,63.528391230996334,320.5630937838691,119.44231621215768,378.30874977467835,126.14209755353767,342.2138656584684,171.7119033076614,393,200,342.2138656584684,228.2880966923386,378.30874977467835,273.85790244646233,320.5630937838691,280.55768378784234,336.4716087690037,336.47160876900364,280.55768378784234,320.5630937838691,273.85790244646233,378.30874977467835,228.2880966923386,342.2138656584684,200,393,171.71190330766143,342.2138656584684,126.14209755353768,378.30874977467835,119.44231621215766,320.563093783869,63.528391230996334,336.4716087690037,79.43690621613092,280.55768378784234,21.691250225321653,273.85790244646233,57.78613434153158,228.28809669233857,7,200.00000000000003,57.78613434153158,171.71190330766146,21.691250225321625,126.14209755353778,79.43690621613094,119.44231621215766,63.528391230996306,63.528391230996334,119.44231621215758,79.436906216131,126.14209755353772,21.691250225321625,171.71190330766134,57.78613434153161Z" fill="rgba(255,200,0, 1)" stroke="rgba(255,0,0,0.2)" stroke-width="2"></path>
</svg>